# xmcd
#
# Track frame offsets:
#	150
#	20748
#	36621
#	63069
#	87192
#	106815
#	127038
#	133011
#	152034
#	172782
#	192405
#	211053
#	236301
#	257049
#	273597
#
# Disc length: 3738 seconds
#
# Revision: 1
# Processed by: cddbd v1.5.2PL0 Copyright (c) Steve Scherf et al.
# Submitted via: audiograbber 1.83.01
#
DISCID=cc0e980f
DTITLE=Brad Paisley - American Saturday Night
DYEAR=2009
DGENRE=Country
TTITLE0=American Saturday Night
TTITLE1=Everybody's Here
TTITLE2=Welcome to the Future
TTITLE3=Then
TTITLE4=Water
TTITLE5=She's Her Own Woman
TTITLE6=Welcome to the Future (Reprise)
TTITLE7=Anything Like Me
TTITLE8=You Do the Math
TTITLE9=No
TTITLE10=Catch All the Fish
TTITLE11=Oh Yeah, You're Gone
TTITLE12=The Pants
TTITLE13=I Hope That's Me
TTITLE14=Hidden Track
EXTD=
EXTT0=
EXTT1=
EXTT2=
EXTT3=
EXTT4=
EXTT5=
EXTT6=
EXTT7=
EXTT8=
EXTT9=
EXTT10=
EXTT11=
EXTT12=
EXTT13=
EXTT14=
PLAYORDER=
